<svg width="29" height="31" viewBox="0 0 29 31" fill="none" xmlns="http://www.w3.org/2000/svg">
<g clip-path="url(#clip0_45_271)">
<path d="M7.37996 2.94485C7.37996 2.53605 7.37996 2.17245 7.37996 1.80985C7.37743 1.65932 7.40556 1.50984 7.46264 1.37048C7.51971 1.23111 7.60455 1.10477 7.712 0.999115C7.81945 0.893456 7.94728 0.810679 8.08774 0.755805C8.2282 0.700931 8.37836 0.675101 8.52912 0.679882C8.67683 0.680533 8.82295 0.710373 8.95905 0.767677C9.09516 0.824981 9.21855 0.908616 9.3221 1.01376C9.42566 1.1189 9.50734 1.24347 9.56242 1.38028C9.61751 1.51708 9.64491 1.66343 9.64305 1.81086C9.64909 2.17345 9.64305 2.53705 9.64305 2.92175H18.7185C18.7185 2.55112 18.7185 2.18852 18.7185 1.82693C18.7266 1.16401 19.2066 0.679882 19.8506 0.679882C20.4946 0.679882 20.9746 1.16803 20.9826 1.82894C20.9826 2.18149 20.9826 2.53203 20.9826 2.94384C21.2604 2.94384 21.526 2.95288 21.7876 2.94384C22.8372 2.90166 23.8686 2.98904 24.8235 3.46313C26.8693 4.47659 28.0214 6.13489 28.11 8.40889C28.2398 11.7405 28.3243 15.0762 28.3253 18.4109C28.3253 20.7422 28.1875 23.0754 28.0536 25.4037C27.9198 27.7319 25.872 29.9236 23.5013 30.3092C22.6834 30.4235 21.8596 30.4906 21.0339 30.5101C16.8207 30.702 12.6065 30.7522 8.39327 30.5423C7.22701 30.484 6.04868 30.481 4.89953 30.3042C2.39594 29.9195 0.453858 27.752 0.282793 25.2389C-0.0452051 20.381 -0.0955999 15.5084 0.131854 10.6447C0.18116 9.57502 0.1872 8.49226 0.372352 7.44365C0.826176 4.87434 3.18989 2.9569 5.80617 2.94284C6.31735 2.94183 6.8235 2.94485 7.37996 2.94485ZM2.37179 12.0127C2.36374 12.1303 2.35368 12.2217 2.35066 12.3141C2.22891 16.5708 2.28425 20.8245 2.55695 25.0702C2.65757 26.6271 4.06131 28.0493 5.62504 28.1236C7.79555 28.2241 9.96707 28.3798 12.1366 28.3687C15.6192 28.3526 19.1009 28.2271 22.5816 28.1307C23.2659 28.1149 23.9281 27.8859 24.4755 27.4758C25.023 27.0657 25.4282 26.495 25.6346 25.8436C25.7966 25.3123 25.8358 24.7337 25.869 24.1733C26.085 20.2279 26.135 16.2805 26.019 12.3311C26.019 12.2307 26.0009 12.1303 25.9908 12.0097L2.37179 12.0127ZM25.9002 9.71464C25.8731 9.22749 25.859 8.75943 25.8187 8.29338C25.7181 7.15738 25.1596 6.30263 24.2017 5.69897C23.2075 5.07422 22.1036 5.20479 20.9816 5.21383C20.9816 5.59551 20.9816 5.94706 20.9816 6.2976C20.9756 6.9806 20.4916 7.47177 19.8345 7.46674C19.2005 7.46072 18.7276 6.96454 18.7175 6.30263C18.7175 5.94304 18.7175 5.58245 18.7175 5.23091H9.64204C9.64204 5.61158 9.64204 5.96514 9.64204 6.31769C9.63399 6.9786 9.15099 7.46674 8.51 7.46674C7.86901 7.46674 7.38499 6.97759 7.37795 6.31869C7.37795 5.9571 7.37795 5.59451 7.37795 5.23894C3.65478 4.80102 2.23092 6.91431 2.52273 9.71464H25.9002Z" fill="white"/>
<path d="M8.49586 15.3947C8.72033 15.3905 8.94336 15.4312 9.15186 15.5143C9.36037 15.5973 9.55015 15.7211 9.71006 15.8784C9.86998 16.0357 9.9968 16.2233 10.0831 16.4302C10.1694 16.637 10.2134 16.859 10.2126 17.0831C10.2161 17.3075 10.1745 17.5303 10.0904 17.7383C10.0063 17.9464 9.88137 18.1356 9.72289 18.2947C9.56441 18.4539 9.37562 18.5797 9.16765 18.6649C8.95969 18.7501 8.73674 18.7928 8.51196 18.7906C8.29045 18.7924 8.07078 18.7505 7.86549 18.6674C7.66021 18.5843 7.47335 18.4616 7.31559 18.3064C7.15784 18.1512 7.03228 17.9664 6.94611 17.7627C6.85994 17.559 6.81484 17.3404 6.8134 17.1193C6.80776 16.8951 6.84709 16.672 6.92908 16.4632C7.01107 16.2544 7.13406 16.064 7.29082 15.9034C7.44757 15.7427 7.63493 15.6149 7.84188 15.5276C8.04882 15.4402 8.27118 15.395 8.49586 15.3947Z" fill="white"/>
<path d="M14.1812 15.3947C14.406 15.3926 14.6289 15.4353 14.8369 15.5205C15.0449 15.6057 15.2336 15.7315 15.3921 15.8906C15.5506 16.0498 15.6756 16.2389 15.7597 16.447C15.8438 16.6551 15.8853 16.8779 15.8818 17.1022C15.8828 17.3263 15.8389 17.5483 15.7527 17.7551C15.6665 17.962 15.5398 18.1496 15.38 18.3069C15.2201 18.4642 15.0304 18.588 14.822 18.6711C14.6135 18.7542 14.3905 18.7948 14.1661 18.7907C13.9447 18.7903 13.7255 18.7463 13.5211 18.6614C13.3167 18.5764 13.1311 18.452 12.9748 18.2954C12.8186 18.1388 12.6948 17.953 12.6105 17.7486C12.5262 17.5442 12.4831 17.3253 12.4836 17.1043C12.4799 16.88 12.5211 16.6572 12.6049 16.4491C12.6887 16.241 12.8133 16.0517 12.9715 15.8924C13.1297 15.7331 13.3182 15.607 13.526 15.5216C13.7337 15.4361 13.9565 15.393 14.1812 15.3947Z" fill="white"/>
<path d="M19.8365 18.7876C19.6121 18.7873 19.39 18.7423 19.1833 18.6552C18.9766 18.5681 18.7893 18.4407 18.6325 18.2804C18.4758 18.1202 18.3526 17.9303 18.2703 17.722C18.1879 17.5136 18.148 17.291 18.153 17.0671C18.1542 16.843 18.2004 16.6214 18.2886 16.4154C18.3769 16.2094 18.5055 16.023 18.6669 15.8673C18.8284 15.7116 19.0193 15.5897 19.2287 15.5087C19.438 15.4277 19.6614 15.3893 19.8858 15.3957C20.1078 15.3978 20.3271 15.4437 20.5313 15.5308C20.7354 15.6179 20.9202 15.7445 21.0751 15.9032C21.23 16.0619 21.3519 16.2497 21.4338 16.4556C21.5157 16.6616 21.5559 16.8817 21.5522 17.1032C21.5526 17.3269 21.5083 17.5485 21.4219 17.7549C21.3355 17.9613 21.2087 18.1484 21.0489 18.3053C20.8891 18.4621 20.6996 18.5856 20.4914 18.6684C20.2832 18.7512 20.0606 18.7918 19.8365 18.7876Z" fill="white"/>
<path d="M10.2125 22.7661C10.2122 22.9901 10.1671 23.2118 10.0798 23.4182C9.99259 23.6246 9.86497 23.8116 9.70446 23.9681C9.54394 24.1247 9.35375 24.2478 9.14501 24.3301C8.93628 24.4124 8.71319 24.4523 8.48881 24.4475C8.26432 24.4461 8.04236 24.4 7.83596 24.3119C7.62955 24.2237 7.44286 24.0953 7.28681 23.9343C7.13076 23.7732 7.0085 23.5826 6.92721 23.3737C6.84591 23.1648 6.80721 22.9419 6.81338 22.7179C6.81869 22.2716 7.00134 21.8456 7.32118 21.5337C7.64102 21.2218 8.07187 21.0495 8.51899 21.0546C8.74353 21.0533 8.96604 21.0969 9.17346 21.1827C9.38088 21.2686 9.56901 21.3949 9.72679 21.5544C9.88458 21.7139 10.0088 21.9032 10.0922 22.1113C10.1757 22.3194 10.2166 22.542 10.2125 22.7661Z" fill="white"/>
<path d="M14.1893 24.4475C13.9649 24.4503 13.7422 24.4083 13.5342 24.324C13.3263 24.2397 13.1373 24.1148 12.9784 23.9565C12.8195 23.7983 12.6939 23.61 12.609 23.4026C12.524 23.1952 12.4814 22.973 12.4837 22.749C12.4818 22.5248 12.5249 22.3026 12.6103 22.0953C12.6958 21.888 12.8219 21.6998 12.9813 21.5419C13.1407 21.384 13.3302 21.2596 13.5385 21.1759C13.7468 21.0922 13.9698 21.0509 14.1944 21.0545C14.4159 21.0539 14.6353 21.0969 14.8402 21.181C15.045 21.2652 15.2312 21.3888 15.388 21.5449C15.5449 21.701 15.6693 21.8865 15.7543 22.0907C15.8392 22.2949 15.8829 22.5138 15.8829 22.7349C15.887 22.9591 15.8463 23.1818 15.7629 23.39C15.6795 23.5983 15.5553 23.7877 15.3975 23.9473C15.2397 24.1068 15.0515 24.2333 14.8441 24.3192C14.6366 24.4051 14.414 24.4487 14.1893 24.4475Z" fill="white"/>
<path d="M21.5521 22.7661C21.5518 22.9901 21.5066 23.2118 21.4194 23.4182C21.3322 23.6246 21.2046 23.8116 21.044 23.9681C20.8835 24.1247 20.6933 24.2478 20.4846 24.3301C20.2759 24.4124 20.0528 24.4523 19.8284 24.4475C19.6039 24.446 19.382 24.3998 19.1757 24.3116C18.9694 24.2234 18.7827 24.095 18.6267 23.934C18.4707 23.7729 18.3484 23.5824 18.2671 23.3736C18.1857 23.1647 18.1469 22.9418 18.153 22.7179C18.1583 22.2716 18.3409 21.8456 18.6608 21.5337C18.9806 21.2218 19.4114 21.0495 19.8586 21.0546C20.0831 21.0533 20.3056 21.0969 20.513 21.1827C20.7205 21.2686 20.9086 21.3949 21.0664 21.5544C21.2242 21.7139 21.3484 21.9032 21.4318 22.1113C21.5152 22.3194 21.5561 22.542 21.5521 22.7661Z" fill="white"/>
</g>
<defs>
<clipPath id="clip0_45_271">
<rect width="28.3333" height="30" fill="white" transform="translate(0 0.679932)"/>
</clipPath>
</defs>
</svg>
