<?xml version="1.0" encoding="utf-8"?>
<!-- Generator: Adobe Illustrator 25.4.1, SVG Export Plug-In . SVG Version: 6.00 Build 0)  -->
<svg version="1.1" id="Layer_1" xmlns="http://www.w3.org/2000/svg" xmlns:xlink="http://www.w3.org/1999/xlink" x="0px" y="0px"
	 viewBox="0 0 30 31" style="enable-background:new 0 0 30 31;" xml:space="preserve">
<style type="text/css">
	.st0{fill:#FFFFFF;}
</style>
<g>
	<path class="st0" d="M13.8,9.4c-0.3-0.3-0.8,0-0.8,0.4v7.5c0,0.4,0.5,0.7,0.8,0.4l4.7-3.7c0.3-0.2,0.3-0.6,0-0.8L13.8,9.4z"/>
	<path class="st0" d="M26,4H4C2.3,4,1,5.3,1,7v13c0,1.7,1.3,3,3,3h22c1.7,0,3-1.3,3-3V7C29,5.3,27.7,4,26,4z M27.5,20
		c0,0.8-0.7,1.5-1.5,1.5H4c-0.8,0-1.5-0.7-1.5-1.5V7c0-0.8,0.7-1.5,1.5-1.5h22c0.8,0,1.5,0.7,1.5,1.5V20z"/>
	<path class="st0" d="M24,25H6c-0.6,0-1,0.4-1,1s0.4,1,1,1h18c0.6,0,1-0.4,1-1S24.6,25,24,25z"/>
</g>
</svg>
