<svg width="30" height="31" viewBox="0 0 30 31" fill="none" xmlns="http://www.w3.org/2000/svg">
<path d="M15 30.9757C6.7253 30.9757 0 24.2511 0 15.9771C0 7.70315 6.7253 0.978455 15 0.978455C23.2747 0.978455 30 7.70315 30 15.9771C30 24.2511 23.2747 30.9757 15 30.9757ZM15 2.29196C7.45509 2.29196 1.31362 8.43287 1.31362 15.9771C1.31362 23.5213 7.45509 29.6622 15 29.6622C22.5449 29.6622 28.6864 23.5213 28.6864 15.9771C28.6864 8.43287 22.5449 2.29196 15 2.29196Z" fill="white"/>
<path d="M13.3608 19.9289V18.3235C13.3608 14.5963 18.256 14.5177 18.256 10.768C18.256 8.84828 16.9087 7.5909 14.9102 7.5909C12.8443 7.5909 11.497 8.88195 11.497 10.8017V11.5988C11.497 11.8233 11.3511 11.9468 11.1265 11.9468L9.83535 11.8907C9.6108 11.8907 9.46484 11.7447 9.46484 11.5202V10.8017C9.46484 7.77053 11.6991 5.73853 14.9663 5.73853C18.1774 5.73853 20.2882 7.7144 20.2882 10.7792C20.2882 15.5617 15.4154 15.674 15.4154 18.4582V19.9289C15.4154 20.1534 15.2695 20.2993 15.0449 20.2993H13.7313C13.5068 20.2993 13.3608 20.1534 13.3608 19.9289ZM12.8219 24.3409C12.8219 23.454 13.5966 22.713 14.506 22.713C15.4267 22.713 16.2238 23.454 16.2238 24.3409C16.2238 25.2615 15.4267 25.9687 14.506 25.9687C13.5629 25.9687 12.8219 25.2502 12.8219 24.3409Z" fill="white"/>
</svg>
