<svg width="30" height="30" viewBox="0 0 30 30" fill="none" xmlns="http://www.w3.org/2000/svg">
<path d="M19.5578 26.224H9.93399C7.40096 26.224 5.3418 24.165 5.3418 21.6322V12.9483C5.3418 12.7674 5.43657 12.5951 5.58304 12.5003L14.0178 7.02983C14.0351 7.02122 14.0609 7.00399 14.0868 6.99537C14.6554 6.74554 15.3102 6.74554 15.8788 6.97814C15.8961 6.98676 15.9133 6.99537 15.9305 7.00399L16.1632 7.13321C16.1804 7.14183 16.1976 7.15044 16.2062 7.15906L23.9173 12.5003C24.0638 12.6037 24.15 12.7674 24.15 12.9397V21.6236C24.15 24.165 22.0908 26.224 19.5578 26.224ZM6.41876 13.2412V21.6322C6.41876 23.5706 7.99544 25.1471 9.93399 25.1471H19.5578C21.4963 25.1471 23.073 23.5706 23.073 21.6322V13.2326L15.6204 8.06363L15.4394 7.96886C15.1637 7.85687 14.8363 7.85687 14.5606 7.96886L14.2332 8.16701L6.41876 13.2412Z" fill="white"/>
<path d="M25.5198 11.1305C25.4164 11.1305 25.313 11.1046 25.2183 11.0357L15.3619 4.3419L15.1809 4.23852C14.9052 4.12652 14.5778 4.12652 14.3021 4.23852L13.9747 4.43666L4.27342 11.0357C4.02356 11.1994 3.69616 11.1391 3.52385 10.8893C3.36015 10.6394 3.42046 10.3034 3.67032 10.1398L13.3889 3.53209L13.768 3.29949C13.7852 3.29087 13.811 3.27364 13.8369 3.26503C14.4055 3.01519 15.0603 3.01519 15.629 3.2478C15.6462 3.25641 15.6634 3.26503 15.6807 3.27364L15.9133 3.40287C15.9305 3.41148 15.9391 3.4201 15.9564 3.42871L25.83 10.1398C26.0798 10.3034 26.1402 10.6394 25.9765 10.8893C25.8645 11.0443 25.6921 11.1305 25.5198 11.1305Z" fill="white"/>
<path d="M14.7416 21.9336C12.6996 21.9336 11.0454 20.2709 11.0454 18.2378C11.0454 16.1961 12.7082 14.542 14.7416 14.542C16.7835 14.542 18.4377 16.2047 18.4377 18.2378C18.4463 20.2709 16.7835 21.9336 14.7416 21.9336ZM14.7416 15.6189C13.2941 15.6189 12.1224 16.7905 12.1224 18.2378C12.1224 19.6851 13.2941 20.8568 14.7416 20.8568C16.189 20.8568 17.3607 19.6851 17.3607 18.2378C17.3607 16.7905 16.189 15.6189 14.7416 15.6189Z" fill="white"/>
</svg>
