<svg width="30" height="30" viewBox="0 0 30 30" fill="none" xmlns="http://www.w3.org/2000/svg">
<path d="M14.7674 16.1675C11.1918 16.1675 8.28833 13.2643 8.28833 9.68909C8.28833 6.11388 11.2004 3.20203 14.7674 3.20203C18.3429 3.20203 21.2464 6.11388 21.2464 9.68909C21.2464 13.2557 18.3429 16.1675 14.7674 16.1675ZM14.7674 4.40812C11.8552 4.40812 9.48592 6.77724 9.48592 9.68909C9.48592 12.6009 11.8552 14.9701 14.7674 14.9701C17.6795 14.9701 20.0488 12.6009 20.0488 9.68909C20.0402 6.77724 17.6795 4.40812 14.7674 4.40812Z" fill="white"/>
<path d="M21.324 27.9873H8.65883C5.83287 27.9873 3.53247 25.6871 3.53247 22.8614C3.53247 20.0357 5.83287 17.7355 8.65883 17.7355H21.324C24.1499 17.7355 26.4503 20.0357 26.4503 22.8614C26.4503 25.6871 24.1499 27.9873 21.324 27.9873ZM8.65883 18.9416C6.49628 18.9416 4.73867 20.699 4.73867 22.8614C4.73867 25.0237 6.49628 26.7812 8.65883 26.7812H21.324C23.4865 26.7812 25.2441 25.0237 25.2441 22.8614C25.2441 20.699 23.4865 18.9416 21.324 18.9416H8.65883Z" fill="white"/>
</svg>
