<svg width="30" height="31" viewBox="0 0 30 31" fill="none" xmlns="http://www.w3.org/2000/svg">
<path d="M17.3375 30.9812C16.1363 30.9812 15.0802 30.1735 14.7695 29.0138L14.5314 28.113C12.7193 28.0405 10.9487 27.5642 9.35406 26.7254L8.69137 27.3881C8.19434 27.8852 7.52129 28.1647 6.81718 28.1647C6.11307 28.1647 5.44002 27.8852 4.943 27.3881L3.5969 26.042C2.56144 25.0066 2.56144 23.3291 3.5969 22.2937L4.24924 21.631C3.41052 20.0364 2.9342 18.2657 2.86172 16.4537L1.96087 16.2155C1.27747 16.0291 0.707963 15.5942 0.355906 14.9833C0.00384986 14.3724 -0.0893414 13.6579 0.0866869 12.9745L0.573353 11.1418C0.883992 9.98204 1.94016 9.17438 3.1413 9.17438C3.3691 9.17438 3.5969 9.20544 3.8247 9.26757L4.72555 9.50573C5.21222 8.73949 5.77137 8.03537 6.41335 7.39339C7.05534 6.7514 7.75945 6.19225 8.52569 5.70559L8.28754 4.80474C8.10115 4.12133 8.19434 3.40686 8.55676 2.79594C8.90881 2.18502 9.47831 1.73977 10.1617 1.56374L11.9945 1.07708C12.2223 1.01495 12.4501 0.983887 12.6779 0.983887C13.879 0.983887 14.9352 1.79155 15.2355 2.95126L15.4736 3.85211C17.2857 3.92459 19.0563 4.40091 20.6509 5.23963L21.3136 4.57693C21.8106 4.07991 22.4733 3.80034 23.1878 3.80034C23.8919 3.80034 24.565 4.07991 25.062 4.57693L26.4081 5.92303C27.4436 6.95849 27.4436 8.63594 26.4081 9.6714L25.7454 10.3237C26.5841 11.9183 27.0604 13.689 27.1329 15.501L28.0338 15.7392C29.442 16.1223 30.2911 17.572 29.908 18.9905L29.4213 20.8233C29.1106 21.983 28.0545 22.7907 26.8533 22.7907C26.6255 22.7907 26.3977 22.7596 26.1699 22.6975L25.2691 22.4593C24.7824 23.2256 24.2233 23.9297 23.5813 24.5717C22.9393 25.2137 22.2352 25.7728 21.4689 26.2595L21.7071 27.1603C22.0902 28.5686 21.2411 30.0286 19.8329 30.4117L18.0002 30.8983C17.7931 30.9501 17.5653 30.9812 17.3375 30.9812ZM15.1112 26.6219C15.4529 26.6219 15.7532 26.8497 15.836 27.181L16.2295 28.6307C16.3848 29.2209 17.0372 29.604 17.6377 29.4383L19.4705 28.9517C20.0814 28.786 20.4438 28.1544 20.2782 27.5434L19.8847 26.0938C19.7915 25.7625 19.9468 25.4104 20.2367 25.2447C21.0755 24.7684 21.8417 24.1886 22.5251 23.5052C23.2085 22.8218 23.7884 22.0555 24.2647 21.2168C24.4304 20.9165 24.7824 20.7715 25.1138 20.8647L26.5634 21.2582C27.164 21.4239 27.806 21.0408 27.9716 20.4505L28.4583 18.6178C28.624 18.0069 28.2616 17.3752 27.6506 17.2096L26.201 16.8161C25.8697 16.7229 25.6419 16.4226 25.6419 16.0809C25.6626 14.1446 25.1552 12.2393 24.1715 10.5826C23.9955 10.2823 24.0472 9.90956 24.2854 9.6714L25.3416 8.61523C25.7868 8.16998 25.7868 7.44516 25.3416 6.98956L23.9955 5.64346C23.5606 5.20857 22.8047 5.20857 22.3698 5.64346L21.3136 6.69963C21.0755 6.93778 20.6924 6.98956 20.4024 6.81353C18.7767 5.85055 16.9026 5.34318 14.9973 5.34318H14.9041C14.9041 5.34318 14.9041 5.34318 14.8938 5.34318C14.5521 5.34318 14.2518 5.11537 14.169 4.78403L13.7755 3.33438C13.6202 2.73382 12.9678 2.36105 12.3776 2.52672L10.5448 3.01339C10.2549 3.09623 10.0064 3.28261 9.85108 3.55183C9.69576 3.82105 9.65434 4.12133 9.73718 4.42162L10.1307 5.87126C10.2238 6.20261 10.0685 6.55466 9.7786 6.72034C8.93988 7.19665 8.17363 7.77651 7.49023 8.45991C6.81718 9.13296 6.22697 9.90956 5.75066 10.7483C5.58498 11.0486 5.23293 11.1935 4.90158 11.1003L3.45193 10.7069C2.85137 10.5412 2.20938 10.9243 2.04371 11.5145L1.55704 13.3473C1.4742 13.6372 1.51562 13.9479 1.67094 14.2171C1.82626 14.4863 2.07477 14.6727 2.3647 14.7555L3.81434 15.149C4.14569 15.2422 4.37349 15.5425 4.37349 15.8842C4.35278 17.8205 4.86016 19.7257 5.84385 21.3825C6.01988 21.6827 5.9681 22.0555 5.72995 22.2937L4.67378 23.3498C4.22853 23.7951 4.22853 24.5199 4.67378 24.9755L6.01988 26.3216C6.45477 26.7565 7.21066 26.7565 7.64555 26.3216L8.70172 25.2654C8.93988 25.0273 9.323 24.9755 9.61292 25.1515C11.2386 26.1145 13.1128 26.6219 15.018 26.6219H15.1112ZM15.0077 22.4283C11.456 22.4283 8.55676 19.5393 8.55676 15.9774C8.55676 12.4257 11.4457 9.52644 15.0077 9.52644C18.5593 9.52644 21.4586 12.4154 21.4586 15.9774C21.4482 19.5393 18.5593 22.4283 15.0077 22.4283ZM15.0077 11.0382C12.2844 11.0382 10.0685 13.2541 10.0685 15.9774C10.0685 18.7006 12.2844 20.9165 15.0077 20.9165C17.7309 20.9165 19.9468 18.7006 19.9468 15.9774C19.9468 13.2541 17.7309 11.0382 15.0077 11.0382Z" fill="white"/>
</svg>
