<?xml version="1.0" encoding="utf-8"?>
<!-- Generator: Adobe Illustrator 25.4.1, SVG Export Plug-In . SVG Version: 6.00 Build 0)  -->
<svg version="1.1" id="Layer_1" xmlns="http://www.w3.org/2000/svg" xmlns:xlink="http://www.w3.org/1999/xlink" x="0px" y="0px"
	 viewBox="0 0 30 30" style="enable-background:new 0 0 30 30;" xml:space="preserve">
<style type="text/css">
	.st0{fill:#FFFFFF;}
</style>
<g>
	<path class="st0" d="M1,5.9c0.2-0.3,0.4-0.3,0.7-0.3c8.9,0,17.8,0,26.7,0c0.5,0,0.7,0.2,0.7,0.7c0,5.8,0,11.6,0,17.4
		c0,0.5-0.1,0.7-0.7,0.7c-8.9,0-17.8,0-26.7,0c-0.3,0-0.5-0.1-0.7-0.3C1,18,1,12,1,5.9z M14.5,19.2c-2.4-0.4-3.7-2.3-3.7-4.1
		c0-0.9,0.2-1.8,0.8-2.5c0.7-1,1.7-1.6,3-1.8c0-1.4,0-2.8,0-4.2c-4.2,0-8.4,0-12.6,0c0,1.2,0,2.4,0,3.6c0.1,0,0.2,0,0.3,0
		c1.2,0,2.5,0,3.7,0c0.5,0,0.6,0.2,0.6,0.6c0,2.8,0,5.6,0,8.4c0,0.5-0.2,0.6-0.6,0.6c-1.2,0-2.5,0-3.7,0c-0.1,0-0.2,0-0.3,0
		c0,1.2,0,2.4,0,3.6c0.1,0,0.1,0,0.2,0c4,0,8.1,0,12.1,0c0.2,0,0.3-0.1,0.3-0.3c0-1.3,0-2.5,0-3.8C14.5,19.3,14.5,19.3,14.5,19.2z
		 M28.1,19.8c-0.1,0-0.2,0-0.3,0c-1.2,0-2.5,0-3.7,0c-0.5,0-0.6-0.1-0.6-0.6c0-2.8,0-5.6,0-8.4c0-0.5,0.1-0.6,0.6-0.6
		c1.2,0,2.5,0,3.7,0c0.1,0,0.2,0,0.3,0c0-1.2,0-2.4,0-3.6c-4.2,0-8.4,0-12.6,0c0,1.4,0,2.8,0,4.2c2.4,0.4,3.6,2.2,3.7,4
		c0,0.9-0.2,1.7-0.7,2.4c-0.7,1.1-1.8,1.7-3.1,1.9c0,1.4,0,2.8,0,4.2c4.2,0,8.4,0,12.6,0C28.1,22.2,28.1,21,28.1,19.8z M1.9,11.1
		c0,2.6,0,5.2,0,7.8c1.2,0,2.5,0,3.7,0c0-2.6,0-5.2,0-7.8C4.4,11.1,3.1,11.1,1.9,11.1z M24.4,11.1c0,2.6,0,5.2,0,7.8
		c1.2,0,2.5,0,3.7,0c0-2.6,0-5.2,0-7.8C26.9,11.1,25.6,11.1,24.4,11.1z M14.5,18.2c0-2.2,0-4.3,0-6.4c-1.6,0.3-2.8,1.6-2.8,3.2
		C11.7,16.6,12.9,17.9,14.5,18.2z M15.5,18.2c1.8-0.3,2.9-1.8,2.8-3.4c-0.1-1.7-1.5-2.9-2.8-3C15.5,13.9,15.5,16.1,15.5,18.2z"/>
</g>
</svg>
