<svg width="57" height="56" viewBox="0 0 57 56" fill="none" xmlns="http://www.w3.org/2000/svg">
<g clip-path="url(#clip0_1234_41727)">
<path d="M56.2218 17.3917C56.2218 10.5026 55.7534 6.97006 52.5026 3.71925C49.2519 0.468428 45.7229 0 38.8304 0H17.6106C10.7216 0 7.19262 0.468428 3.94185 3.71925C0.691077 6.97006 0.222656 10.4991 0.222656 17.3917V38.6118C0.222656 45.5009 0.691077 49.0335 3.94185 52.2843C7.19262 55.5351 10.7216 56.0035 17.6141 56.0035H38.8339C45.7229 56.0035 49.2554 55.5351 52.5062 52.2843C55.7569 49.0335 56.2253 45.5044 56.2253 38.6118V17.3917H56.2218Z" fill="black"/>
<path fill-rule="evenodd" clip-rule="evenodd" d="M9.99246 23.2383C10.8412 22.4247 12.0915 21.9633 13.2186 21.9633C16.4623 21.9633 17.3287 23.8969 17.5471 25.517C18.5649 23.4144 20.7203 21.9633 23.2174 21.9633C24.9714 21.9633 26.5598 22.6818 27.7009 23.8405L27.2148 22.2873H31.5926L33.2022 28.1479L34.7624 22.2873H38.633L40.1897 28.1303L41.8028 22.2873H46.2017L42.4755 34.2269H38.2245L36.7171 28.3452L35.1886 34.2269H30.9376L29.4125 29.3384C28.8983 32.3004 26.3167 34.551 23.2104 34.551C20.7697 34.551 18.6565 33.1633 17.6105 31.1346V34.2234H13.2327V28.4368C13.2327 27.2181 13.4968 25.6861 11.7393 25.6861C10.6405 25.6861 10.0946 26.5912 10.0946 27.7429V34.2234H5.7168V22.2838H9.98893V23.2347L9.99246 23.2383ZM23.2174 30.6768C24.5558 30.6768 25.637 29.592 25.637 28.2571C25.637 26.9223 24.5522 25.8375 23.2174 25.8375C21.8826 25.8375 20.7978 26.9223 20.7978 28.2571C20.7978 29.592 21.8826 30.6768 23.2174 30.6768ZM22.3264 35.7942H24.1049V41.1724H22.3264V35.7942ZM22.3264 15.3877H24.1049V20.7658H22.3264V15.3877Z" fill="url(#paint0_linear_1234_41727)"/>
<path d="M43.1514 37.1255C43.1514 39.2986 44.9123 41.0561 47.0819 41.0561C49.2514 41.0561 51.0124 39.2951 51.0124 37.1255C51.0124 34.956 49.2514 33.1949 47.0819 33.1949C44.9123 33.1949 43.1514 34.956 43.1514 37.1255Z" fill="black"/>
<path fill-rule="evenodd" clip-rule="evenodd" d="M44.9934 39.0627V36.4247H43.965V35.516H47.9201L48.5013 37.6679L49.0824 35.516H50.2059L49.1 39.0627H47.8779L47.0925 36.4247H46.0887V39.0627H44.9969H44.9934ZM43.0176 37.1255C43.0176 39.3726 44.8384 41.1935 47.0854 41.1935C49.3325 41.1935 51.1533 39.3726 51.1533 37.1255C51.1533 34.8785 49.3325 33.0576 47.0854 33.0576C44.8384 33.0576 43.0176 34.8785 43.0176 37.1255Z" fill="white"/>
</g>
<defs>
<linearGradient id="paint0_linear_1234_41727" x1="25.9645" y1="15.3877" x2="25.9645" y2="41.1724" gradientUnits="userSpaceOnUse">
<stop stop-color="#FFC415"/>
<stop offset="0.51" stop-color="#F79528"/>
<stop offset="1" stop-color="#F26723"/>
</linearGradient>
<clipPath id="clip0_1234_41727">
<rect width="55.9992" height="56" fill="white" transform="translate(0.222656)"/>
</clipPath>
</defs>
</svg>
