<svg width="58" height="32" viewBox="0 0 58 32" fill="none" xmlns="http://www.w3.org/2000/svg">
<path fill-rule="evenodd" clip-rule="evenodd" d="M5.41255 9.61556C6.48633 8.62027 8.07518 8.05514 9.50688 8.05514C13.6187 8.05514 14.7186 10.4253 14.998 12.4074C16.29 9.82643 19.0225 8.05514 22.1827 8.05514C24.4089 8.05514 26.4167 8.93235 27.8659 10.3578L27.2548 8.46001H32.807L34.8498 15.6379L36.8315 8.46001H41.729L43.702 15.6126L45.7448 8.46001H51.3319L46.609 23.0858H41.2139L39.3021 15.8825L37.3641 23.0773H31.9777L30.0397 17.0887C29.3849 20.7156 26.1199 23.4738 22.174 23.4738C19.0836 23.4738 16.4035 21.7784 15.0766 19.2902V23.0773H9.52434V15.9922C9.52434 14.4993 9.85608 12.6267 7.62995 12.6267C6.23316 12.6267 5.5435 13.7317 5.5435 15.1487V23.0858H0V8.45157H5.41255V9.61556ZM22.1827 18.725C23.8763 18.725 25.2469 17.4008 25.2469 15.756C25.2469 14.1197 23.8763 12.787 22.1827 12.787C20.4891 12.787 19.1098 14.1113 19.1098 15.756C19.1098 17.4008 20.4891 18.725 22.1827 18.725ZM21.0566 25.0005H23.3089V31.588H21.0566V25.0005ZM21.0566 0H23.3089V6.5875H21.0566V0Z" fill="url(#paint0_linear_22_935)"/>
<path d="M47.52 26.4348C47.52 29.1212 49.7796 31.3044 52.56 31.3044C55.3404 31.3044 57.6 29.1212 57.6 26.4348C57.6 23.7484 55.3404 21.5652 52.56 21.5652C49.7708 21.5652 47.52 23.7484 47.52 26.4348Z" fill="black"/>
<path fill-rule="evenodd" clip-rule="evenodd" d="M49.9675 28.7501V25.5944H48.6969V24.5067H52.2274H52.7476H53.5919L54.3082 27.0775L55.0246 24.5067H56.4232L55.0502 28.7501H53.5322L52.56 25.5944H51.3149V28.7501H49.9675ZM47.52 26.4348C47.52 29.1209 49.7714 31.3044 52.56 31.3044C55.3401 31.3044 57.6 29.1291 57.6 26.4348C57.6 23.7487 55.3487 21.5652 52.56 21.5652C49.7714 21.5652 47.52 23.7487 47.52 26.4348Z" fill="white"/>
<defs>
<linearGradient id="paint0_linear_22_935" x1="25.6647" y1="0" x2="25.6647" y2="31.5848" gradientUnits="userSpaceOnUse">
<stop stop-color="#FFC415"/>
<stop offset="0.5141" stop-color="#F79528"/>
<stop offset="1" stop-color="#F26723"/>
</linearGradient>
</defs>
</svg>
